<svg width="21" height="21" viewBox="0 0 21 21" fill="none" xmlns="http://www.w3.org/2000/svg">
<g clip-path="url(#clip0_288_43)">
<path fill-rule="evenodd" clip-rule="evenodd" d="M0.350161 0.0398125C0.126616 0.138933 0.0219314 0.321737 0.0234539 0.610382C0.0248714 0.882857 0.0513313 0.945332 4.32473 10.7693C6.68964 16.2059 8.66075 20.7051 8.70496 20.7675C8.95638 21.1222 9.56087 21.0756 9.75569 20.6864C9.79848 20.601 10.2447 19.1837 10.7472 17.5369C11.8992 13.7622 11.9208 13.7071 12.5374 12.9899C13.3503 12.0441 13.4962 11.9789 17.5972 10.7294C19.1876 10.2448 20.5674 9.81116 20.6635 9.7657C21.0723 9.5724 21.1312 8.96476 20.7663 8.70614C20.7039 8.66194 16.2047 6.69203 10.7681 4.32859C0.359559 -0.196333 0.630879 -0.0846125 0.350161 0.0398125Z" fill="#58D382"/>
</g>
<defs>
<clipPath id="clip0_288_43">
<rect width="21" height="21" fill="white"/>
</clipPath>
</defs>
</svg>
