<svg width="148" height="24" viewBox="0 0 148 24" fill="none" xmlns="http://www.w3.org/2000/svg">
<path d="M19.2894 18.5026V23.688H0V18.9186L11.1963 5.56813H0.123841V0.382812H19.0072V5.27809L7.74051 18.5026H19.2894Z" fill="#2D2E3A"/>
<path d="M42.1322 18.5026V23.688H24.2188V0.382812H41.8147V5.56813H30.2488V9.36179H39.1703V14.474H30.2488V18.503H42.1322V18.5026Z" fill="#2D2E3A"/>
<path d="M61.7242 0.382812H67.3489V23.688H62.4474L52.609 9.88589V23.688H46.9844V0.382812H52.8213L61.7242 13.2998V0.382812Z" fill="#2D2E3A"/>
<path d="M110.231 16.0634H106.14V23.688H100.109V0.382812H111.626C114.522 0.382812 116.712 1.03666 118.195 2.34309C119.679 3.64951 120.427 5.47018 120.438 7.80444C120.438 9.46228 119.984 10.8352 119.073 11.9234C118.162 13.0133 116.998 13.6481 115.579 13.829C118.004 14.3251 119.333 15.8478 119.57 18.3971C119.735 20.2731 119.888 21.5257 120.029 22.1554C120.17 22.7851 120.418 23.2952 120.77 23.6876H114.515C114.056 23.1053 113.744 21.6332 113.579 19.2697C113.485 18.0348 113.18 17.1918 112.663 16.7405C112.146 16.2902 111.335 16.0634 110.231 16.0634ZM106.14 11.1144H110.513C111.864 11.1144 112.851 10.9004 113.475 10.4739C114.097 10.0474 114.409 9.30932 114.409 8.2608C114.409 6.30911 113.11 5.33343 110.513 5.33343H106.14V11.1144Z" fill="#2D2E3A"/>
<path d="M131.362 23.688H125.227V0.382812H131.362V9.81369L139.526 0.382812H146.579L137.798 10.3012L147.002 23.688H139.685L133.355 14.4018L131.362 16.6241V23.688Z" fill="#2D2E3A"/>
<path d="M95.3876 11.9712C95.3876 8.42403 94.2591 5.5151 92.0023 3.24539C90.1543 1.40692 87.9336 0.332967 85.3516 0V5.68238C86.233 5.9651 86.9814 6.48029 87.5947 7.22764C88.582 8.41799 89.0755 9.99887 89.0755 11.9715C89.0755 13.9445 88.5817 15.5267 87.5947 16.7167C86.9826 17.4542 86.2346 17.963 85.3516 18.2435V23.9237C87.9355 23.5879 90.1568 22.5123 92.0023 20.6713C94.2594 18.4194 95.3876 15.5197 95.3876 11.9712Z" fill="#6566E4"/>
<path d="M79.7143 16.792C78.7267 15.602 78.2332 14.0198 78.2332 12.0468C78.245 10.0872 78.745 8.50534 79.7323 7.3029C80.3422 6.56065 81.084 6.04831 81.958 5.764V0.078125C79.3825 0.41459 77.1602 1.49013 75.3073 3.33083C73.0505 5.58305 71.922 8.48626 71.922 12.0382C71.9096 15.5911 73.0381 18.4994 75.3073 20.7634C77.1636 22.5971 79.3847 23.6676 81.958 24.0005V18.3242C81.0707 18.0443 80.3227 17.5346 79.7143 16.792Z" fill="#4349E4"/>
</svg>
